<?xml version="1.0" encoding="utf-8"?>
<!-- Generator: Adobe Illustrator 12.0.0, SVG Export Plug-In . SVG Version: 6.00 Build 51448)  -->
<!DOCTYPE svg PUBLIC "-//W3C//DTD SVG 1.1//EN" "http://www.w3.org/Graphics/SVG/1.1/DTD/svg11.dtd" [
	<!ENTITY ns_svg "http://www.w3.org/2000/svg">
	<!ENTITY ns_xlink "http://www.w3.org/1999/xlink">
]>
<svg  version="1.1" id="Layer_1" xmlns="&ns_svg;" xmlns:xlink="&ns_xlink;" width="317.308" height="272.085"
	 viewBox="0 0 317.308 272.085" overflow="visible" enable-background="new 0 0 317.308 272.085" xml:space="preserve">
<path stroke="#000000" stroke-width="21.0375" d="M299.246,261.567H18.559L162.68,20.883L299.246,261.567z M162.598,55.421
	L49.86,244.162h219.668L162.598,55.421z"/>
<polygon points="162.392,48.854 36.251,253.125 284.882,253.125 "/>
<path fill="#F7E300" d="M144.018,157.167c0.571,4.519,6.756,8.347,16.135,8.484c22.798,0.34,23.563-16.885,23.563-16.885
	c0-17.587-29.319-18.98-29.319-18.98c-38.279,0.278-37.872,27.08-37.872,27.08c-0.404,42.987,102.217,41.032,101.809-4.754
	c-0.275-30.924-27.494-44.953-55.028-47.619c0,0-22.795-1.463-22.795,1.463c0,2.698,6.786,0.564,20.929,2.624
	c37.854,5.508,49.887,29.572,49.563,42.417c-0.303,12.006-16.188,29.678-43.56,31.121c-28.875,1.522-43.584-12.412-43.584-25.531
	c-0.004-13.123,16.692-21.219,26.06-21.219c1.161,0,2.234,0.033,3.225,0.094c0,0,2.45-0.534,2.801,0.928
	c0.351,1.464-2.507,1.84-2.507,1.84c-9.79,1.682-23.066,6.438-23.063,16.68c0,16.473,17.918,22.614,33.394,22.614
	c15.474,0,38.276-13.123,38.276-29.315s-21.99-30.149-50.086-30.146c-28.102,0-58.237,15.912-58.234,44.389
	c0,13.079,8.423,23.036,17.528,29.979c0,0,2.959,1.902,4.711,1.023c1.755-0.877-0.868-3.011-0.868-3.011
	c-6.781-7.087-12.818-16.599-12.818-27.993c-0.003-25.961,25.651-38.803,44.793-38.803c19.141,0,44.795,6.138,44.795,23.449
	c0,17.306-18.324,24.564-28.096,24.564c-9.775,0-24.307-2.789-23.956-13.908c0.165-5.26,2.991-8.416,5.495-7.998
	c0,0,1.285,0.391,0.231,2.146C144.486,153.658,143.785,155.315,144.018,157.167z"/>
<g>
	<g>
		<path fill="#FFFFFF" d="M95.332,198.798c16.775,0,11.099,0.154,11.099,0.154c4.491,0,5.023,2.106,4.246,4.447
			c-0.778,2.352-1.854,2.588-1.854,2.588c-11.571,0.036-21.354,0.036-21.354,0.036c-4.314,0-4.518,0.427-5.303,1.845
			c-1.465,2.682-1.098,3.311,1.52,3.311c4.282,0,16.656,0,16.656,0c7.378,0,7.111,2.969,5.986,6.658
			c-1.031,3.373-3.683,12.252-3.683,12.252c-3.136,7.287-9.072,6.8-14.163,6.742c-5.01-0.062-10.497-0.188-14.844-0.188
			c-4.346,0-8.265-1.384-6.188-6.312c0.601-1.437,2.385-4.154,2.385-4.154l24.234,0.049c5.265,0.076,4.529-0.122,5.468-2.242
			c1.958-4.436-2.323-3.848-2.794-3.88l-15.598-0.058c-8.527,0-6.725-4.356-4.872-8.154c1.664-3.43,3.412-6.848,3.412-6.848
			C83.452,197.835,91.098,198.798,95.332,198.798"/>
		<path fill="#FFFFFF" d="M180.457,206.498c0.412,5.553,0.727,9.678,1.875,20.539c0.854,8.084,5.477,9.912,14.035,9.854
			c3.454-0.02,9.237,0.117,15.655-0.119c6.414-0.244,6.453-2.9,5.729-7.598c0,0,0.031-3.08-4.336-3.08c0,0-17.263,0-19.154,0
			c-1.857,0-6.75,0.48-7.389-4.238c0,0-1.566-11.189-1.826-13.044c-0.26-1.849-0.273-3.002,3.231-3.002s13.438,0.069,18.584,0.172
			c3.938,0.076,3.638-0.103,3.351-1.558c-0.24-1.215-0.793-5.059-8.529-5.273c0,0-4.193,0-14.67,0
			C181.31,199.15,180.046,200.982,180.457,206.498z"/>
		<path fill="#FFFFFF" d="M219.638,198.931c-6.041,0-7.098,2.143-5.957,6.787c1.139,4.666,4.008,13.25,5.875,19.533
			c1.879,6.338,3.008,11.437,14.16,11.506c10.936,0.066,13.93,0.066,13.93,0.066c8.389-0.117,8.391-3.021,7.025-6.316
			c-1.299-3.114,0.254,0.631-1.156-2.631c-0.541-1.252-2.459-1.489-4.545-1.489c-6.438,0-19.318-0.237-20.926-0.179
			c-1.604,0.061-2.971,0.117-3.961-2.502c-0.98-2.604-1.433-3.615,0.646-3.615c2.082,0,21.252-0.115,21.252-0.115
			c2.317,0,1.979-0.77,1.256-2.244c-0.721-1.479-1.978-4.242-1.978-4.242c-1.196-2.755-2.944-2.223-4.069-2.283
			c-1.123-0.063-18.847-0.063-18.847-0.063c-2.243,0-2.481-0.732-2.95-1.693c-1.699-3.486-0.246-3.646,1.239-3.646
			c4.064,0,18.197,0.089,20.201,0.089c2.002,0,2.273-0.472,1.508-1.747c-0.766-1.271-2.5-5.186-9.721-5.268
			C225.369,198.798,225.679,198.931,219.638,198.931z"/>
		<path fill="#FFFFFF" d="M155.23,198.921c4.773,0,6.741,0.035,13.839,0.035c7.103,0,8.07,2.598,8.461,7.084
			c0.392,4.502,1.771,25.021,1.919,27.756c0.174,3.135-0.753,2.957-2.529,2.916c-1.426-0.029-1.986-0.338-2.224-3.272
			c-0.297-3.692-0.536-8.407-0.788-10.646c-0.25-2.225-1.197-2.93-4.382-2.93c-3.18,0-9.655-0.136-12.719-0.097
			c-3.148,0.04-7.029-0.813-7.444,2.91c-0.472,4.235-0.662,7.558-0.905,10.64c-0.286,3.678-1.029,3.452-2.825,3.452
			c-2.293,0-1.779-1.733-1.688-2.976c0.13-1.783,1.32-14.285,2.514-29.602C146.9,198.539,153.593,198.921,155.23,198.921z
			 M153.92,206.268c-3.392,0.116-3.286,2.078-3.292,3c-0.009,1.241,0.574,1.743,2.566,1.743c0,0,12.308,0.345,16.294,0.23
			c2.488-0.072,3.234-0.289,3.15-1.975c-0.027-0.59,0.359-2.773-3.174-2.885C165.376,206.255,164.441,206.268,153.92,206.268"/>
		<path fill="#FFFFFF" d="M121.795,198.826c10.183,0,15.188,0.057,15.188,0.057c6.461,0,6.839,2.52,6.698,5.334
			c-0.143,2.822-0.891,8.843-1.162,10.822c-0.272,1.98-1.303,4.498-6.366,4.612c-5.065,0.118-21.912,0-21.912,0
			s-3.572,13.007-4.124,15.147c-0.55,2.148-1.673,2.068-3.098,1.973c-1.424-0.109,0,0,0,0s-2.512,0.414-1.77-2.327
			c0.739-2.735,7.662-29.308,7.662-29.308c1.012-3.621,3.003-6.139,8.415-6.256 M120.854,206.291c0,0-2.745-0.345-3.395,1.5
			c0,0-0.236,0.694-0.415,1.5c-0.178,0.813-0.53,1.801,2.163,1.801c0,0,13.656,0,17.349,0c2.075,0,2.335-1.191,2.497-2.319
			c0.212-1.465,0.204-2.431-3.063-2.481c-4.792-0.08-15.078,0-15.078,0"/>
	</g>
</g>
<path fill="#F7E300" d="M299.246,261.567H18.559L162.68,20.883L299.246,261.567z M162.974,55.421L50.237,244.162h219.668
	L162.974,55.421z"/>
</svg>
